<mxfile host="app.diagrams.net" modified="2024-03-19T13:17:57.837Z" agent="Mozilla/5.0 (Windows NT 10.0; Win64; x64) AppleWebKit/537.36 (KHTML, like Gecko) Chrome/122.0.0.0 Safari/537.36 Edg/122.0.0.0" etag="RIZ3Pwy6WJ3I45ywd5oA" version="22.1.18" type="github">
  <diagram name="第 1 页" id="CoU0iqgG-j70pX-7ahIs">
    <mxGraphModel dx="699" dy="392" grid="1" gridSize="10" guides="1" tooltips="1" connect="1" arrows="1" fold="1" page="1" pageScale="1" pageWidth="827" pageHeight="1169" math="0" shadow="0">
      <root>
        <mxCell id="0" />
        <mxCell id="1" parent="0" />
        <mxCell id="YpmcGLDcxo4he_RyR4FR-2" value="" style="rounded=0;whiteSpace=wrap;html=1;" vertex="1" parent="1">
          <mxGeometry x="210" y="190" width="120" height="80" as="geometry" />
        </mxCell>
        <mxCell id="YpmcGLDcxo4he_RyR4FR-1" value="" style="ellipse;whiteSpace=wrap;html=1;" vertex="1" parent="1">
          <mxGeometry x="210" y="190" width="120" height="80" as="geometry" />
        </mxCell>
        <mxCell id="YpmcGLDcxo4he_RyR4FR-4" style="edgeStyle=orthogonalEdgeStyle;rounded=0;orthogonalLoop=1;jettySize=auto;html=1;exitX=1;exitY=0.5;exitDx=0;exitDy=0;entryX=0;entryY=0.25;entryDx=0;entryDy=0;" edge="1" parent="1" source="YpmcGLDcxo4he_RyR4FR-3" target="YpmcGLDcxo4he_RyR4FR-2">
          <mxGeometry relative="1" as="geometry" />
        </mxCell>
        <mxCell id="YpmcGLDcxo4he_RyR4FR-3" value="Bounds" style="text;html=1;strokeColor=none;fillColor=none;align=center;verticalAlign=middle;whiteSpace=wrap;rounded=0;" vertex="1" parent="1">
          <mxGeometry x="80" y="196" width="60" height="30" as="geometry" />
        </mxCell>
        <mxCell id="YpmcGLDcxo4he_RyR4FR-5" value="" style="endArrow=classic;html=1;rounded=0;exitX=0;exitY=0.5;exitDx=0;exitDy=0;entryX=1;entryY=0.5;entryDx=0;entryDy=0;dashed=1;" edge="1" parent="1" source="YpmcGLDcxo4he_RyR4FR-1" target="YpmcGLDcxo4he_RyR4FR-1">
          <mxGeometry width="50" height="50" relative="1" as="geometry">
            <mxPoint x="240" y="246" as="sourcePoint" />
            <mxPoint x="290" y="196" as="targetPoint" />
          </mxGeometry>
        </mxCell>
        <mxCell id="YpmcGLDcxo4he_RyR4FR-6" value="gradient" style="edgeLabel;html=1;align=center;verticalAlign=middle;resizable=0;points=[];" vertex="1" connectable="0" parent="YpmcGLDcxo4he_RyR4FR-5">
          <mxGeometry x="-0.1325" y="1" relative="1" as="geometry">
            <mxPoint x="8" y="1" as="offset" />
          </mxGeometry>
        </mxCell>
        <mxCell id="YpmcGLDcxo4he_RyR4FR-7" value="(0,0)" style="text;html=1;strokeColor=none;fillColor=none;align=center;verticalAlign=middle;whiteSpace=wrap;rounded=0;" vertex="1" parent="1">
          <mxGeometry x="180" y="166" width="60" height="30" as="geometry" />
        </mxCell>
        <mxCell id="YpmcGLDcxo4he_RyR4FR-8" value="(0,Bounds.W)" style="text;html=1;strokeColor=none;fillColor=none;align=center;verticalAlign=middle;whiteSpace=wrap;rounded=0;" vertex="1" parent="1">
          <mxGeometry x="300" y="166" width="60" height="30" as="geometry" />
        </mxCell>
        <mxCell id="YpmcGLDcxo4he_RyR4FR-11" value="(0,H/2)" style="text;html=1;strokeColor=none;fillColor=none;align=center;verticalAlign=middle;whiteSpace=wrap;rounded=0;" vertex="1" parent="1">
          <mxGeometry x="160" y="215" width="60" height="30" as="geometry" />
        </mxCell>
        <mxCell id="YpmcGLDcxo4he_RyR4FR-12" value="(0,W/2)" style="text;html=1;strokeColor=none;fillColor=none;align=center;verticalAlign=middle;whiteSpace=wrap;rounded=0;" vertex="1" parent="1">
          <mxGeometry x="320" y="215" width="60" height="30" as="geometry" />
        </mxCell>
        <mxCell id="YpmcGLDcxo4he_RyR4FR-13" value="90度的渐变（X轴+）" style="text;html=1;strokeColor=none;fillColor=none;align=center;verticalAlign=middle;whiteSpace=wrap;rounded=0;" vertex="1" parent="1">
          <mxGeometry x="200" y="280" width="140" height="30" as="geometry" />
        </mxCell>
      </root>
    </mxGraphModel>
  </diagram>
</mxfile>
